<svg xmlns="http://www.w3.org/2000/svg" viewBox="0 0 64 64" width="64" height="64">
  <defs>
    <linearGradient id="goldGrad" x1="0%" y1="0%" x2="100%" y2="100%">
      <stop offset="0%" style="stop-color:#FFEB3B;stop-opacity:1" />
      <stop offset="100%" style="stop-color:#FBC02D;stop-opacity:1" />
    </linearGradient>
  </defs>

  <rect x="2" y="2" width="60" height="60" rx="14" fill="#0E4D2D" stroke="#0A3820" stroke-width="2"/>

  <g transform="translate(12, 10)">
    <path d="M 20 0 L 40 8 L 40 44 L 0 44 L 0 8 Z" fill="#DA291C"/>
    <path d="M 0 8 L 20 0 L 40 8 L 20 16 Z" fill="#B71C1C"/>
    <path d="M 20 16 L 40 8 L 40 44 L 20 52 Z" fill="#900C0C" opacity="0.4"/>
  </g>

  <g transform="translate(25, 28)">
     <path d="M 0 16 L 4 16 L 4 6 L 7 12 L 11 6 L 11 16 L 15 16 L 15 0 L 11 0 L 7.5 7 L 4 0 L 0 0 Z" fill="url(#goldGrad)"/>
    <path d="M -2 5 H 17 V 7 H -2 Z" fill="url(#goldGrad)"/>
    <path d="M -2 9 H 17 V 11 H -2 Z" fill="url(#goldGrad)"/>
  </g>
</svg>
